<svg width="747" height="302" viewBox="0 0 747 302" fill="none" xmlns="http://www.w3.org/2000/svg">
<g clip-path="url(#clip0_1392_2)">
<path d="M50.6998 -0.100098H74.9998L125.9 139.9H103.9L94.1998 113.3H31.4998L21.8998 139.9H-0.200195L50.6998 -0.100098ZM39.1998 92.4999H86.4998L62.7998 27.4999L39.1998 92.4999Z" fill="black"/>
<path d="M176 139.8C169.8 139.5 163.8 138.5 157.9 136.8C152 135.1 146.9 132.8 142.4 129.8C138 126.9 134.7 123.4 132.5 119.4L153.3 112.2C154.3 113.9 156.1 115.6 158.7 117.2C161.2 118.8 164.2 120.2 167.7 121.2C171.2 122.2 174.8 122.8 178.5 122.8C182.2 122.8 185.6 122.4 188.8 121.5C192 120.6 194.6 119.3 196.6 117.6C198.6 115.8 199.7 113.7 199.7 111.2C199.7 108.4 198.5 106.3 196.2 104.7C193.9 103.2 191 102 187.6 101.1C184.1 100.3 180.7 99.4998 177.2 98.6998C169.5 97.2998 162.5 95.3998 156.1 92.9998C149.7 90.5998 144.6 87.3998 140.9 83.5998C137.1 79.7998 135.3 75.0998 135.3 69.4998C135.3 63.3998 137.3 58.1998 141.4 53.6998C145.5 49.1998 150.8 45.7998 157.5 43.3998C164.1 40.9998 171.2 39.7998 178.7 39.7998C188.1 39.7998 196.7 41.3998 204.6 44.5998C212.4 47.7998 218.4 52.2998 222.6 57.8998L203.2 67.1998C202 65.2998 200.3 63.5998 197.9 62.0998C195.5 60.5998 192.9 59.3998 189.9 58.3998C186.9 57.4998 183.8 56.9998 180.6 56.7998C176.6 56.6998 172.9 56.9998 169.5 57.8998C166.1 58.7998 163.4 60.0998 161.3 61.8998C159.3 63.6998 158.2 66.0998 158.2 68.8998C158.2 71.6998 159.4 73.7998 161.8 75.0998C164.2 76.4998 167.3 77.5998 171 78.3998C174.7 79.1998 178.5 80.0998 182.5 81.1998C189.5 82.9998 196 85.0998 202.1 87.6998C208.2 90.2998 213.2 93.3998 216.9 97.0998C220.7 100.8 222.5 105.4 222.3 110.8C222.3 116.7 220.1 122 215.7 126.5C211.3 131 205.5 134.4 198.5 136.7C191.4 139.2 183.9 140.2 176 139.8Z" fill="black"/>
<path d="M257.3 39.8999H236.5V139.9H257.3V39.8999Z" fill="black"/>
<path d="M247 3.59985C243.9 3.59985 241.2 4.59986 239.1 6.69986C237 8.79986 235.9 11.3998 235.9 14.4998C235.9 17.5998 237 20.1998 239.1 22.2998C241.2 24.3998 243.9 25.3998 247.1 25.3998C250.2 25.3998 252.7 24.3998 254.9 22.2998C257 20.1998 258 17.5998 258 14.4998C258 11.3998 256.9 8.89986 254.8 6.69986C252.7 4.69986 250.1 3.59985 247 3.59985Z" fill="black"/>
<path d="M512.9 39.8998H492.2H492.1V95.7998C492.1 100.2 491 104.1 488.9 107.7C486.7 111.3 483.8 114.1 480.2 116.2C476.6 118.3 472.5 119.4 468.1 119.4C463.7 119.4 459.7 118.3 456 116.2C452.3 114.1 449.4 111.2 447.2 107.7C445 104.1 443.9 100.2 443.9 95.7998V39.8998H423V100.8C423 108 424.8 114.6 428.4 120.5C432 126.4 436.8 131.1 442.9 134.6C449 138.1 455.7 139.9 463.1 139.9C468.9 139.9 474.3 138.7 479.4 136.4C484.5 134.1 488.7 130.9 492.1 126.8L492.2 137.3V139.8H513V39.7998H512.9V39.8998Z" fill="black"/>
<path d="M352.7 39.8998V42.5998V56.8998C349.1 52.0998 345.2 47.6998 339.7 44.5998C334.1 41.4998 327.7 39.8998 320.5 39.8998C313.4 39.8998 306.7 41.1998 300.4 43.6998C294.2 46.2998 288.7 49.7998 284 54.2998C279.3 58.7998 275.6 63.9998 272.9 69.9998C270.2 75.9998 268.9 82.3998 268.9 89.0998C268.9 96.0998 270.3 102.7 273 108.8C275.7 114.9 279.5 120.3 284.4 125C289.3 129.7 295 133.3 301.5 136C308 138.6 314.9 139.9 322.2 139.9C329 139.9 334.9 138.4 339.9 135.4C344.8 132.5 349.7 127.3 352.7 122.5V139.9H373.5V137.4V42.4998V39.7998H352.7V39.8998ZM317.5 120.2C300.9 120.2 287.5 106.8 287.5 90.1998C287.5 73.5998 300.9 60.1998 317.5 60.1998C334.1 60.1998 347.5 73.5998 347.5 90.1998C347.5 106.8 334 120.2 317.5 120.2Z" fill="black"/>
<path d="M680.1 139.9C670.9 139.9 662.5 137.7 654.9 133.2C647.3 128.7 641.3 122.7 636.8 115.1C632.3 107.5 630 99.1999 630 89.9999C630 82.9999 631.3 76.4999 633.9 70.4999C636.5 64.4999 640.1 59.0999 644.7 54.5999C649.3 49.9999 654.6 46.3999 660.6 43.7999C666.7 41.1999 673.1 39.8999 680 39.8999C687.7 39.8999 694.7 41.3999 701.1 44.3999C707.5 47.3999 713 51.4999 717.5 56.7999C722 62.0999 725.4 68.1999 727.5 74.9999C729.6 81.8999 730.3 89.1999 729.4 96.8999H652.3C653.2 101.3 654.8 105.2 657.3 108.7C659.8 112.2 663 115 666.9 117C670.8 119 675.1 120.1 679.9 120.1C685 120.1 689.6 118.9 693.7 116.5C697.9 114.1 701.3 110.8 703.9 106.5L725 111.1C721 119.5 715 126.4 706.9 131.7C699.2 137.2 690.1 139.9 680.1 139.9ZM651.7 81.8999H708.5C707.8 77.2999 706.1 73.1999 703.4 69.4999C700.7 65.7999 697.3 62.8999 693.3 60.6999C689.3 58.4999 684.8 57.3999 680.1 57.3999C675.4 57.3999 671 58.4999 666.9 60.5999C662.9 62.7999 659.5 65.6999 656.9 69.3999C654.3 73.0999 652.6 77.1999 651.7 81.8999Z" fill="black"/>
<path d="M387.9 139.9L387.6 -0.100098H408.3L408.4 139.9H387.9Z" fill="black"/>
<path d="M579.201 68.9999L558.101 39.8999H528.101L564.301 89.7999L527.801 139.9H557.801L579.201 110.3L600.701 139.9H630.601L594.201 89.7999" fill="black"/>
<path d="M600.201 81.4999L630.301 39.8999H600.401L585.201 60.7999L600.201 81.4999Z" fill="#0074FF"/>
<path d="M237.2 202.1V204.8V219.1C233.6 214.3 229.7 209.9 224.2 206.8C218.6 203.7 212.2 202.1 205 202.1C197.9 202.1 191.2 203.4 184.9 205.9C178.7 208.5 173.2 212 168.5 216.5C163.8 221 160.1 226.2 157.4 232.2C154.7 238.2 153.4 244.6 153.4 251.3C153.4 258.3 154.8 264.9 157.5 271C160.2 277.1 164 282.5 168.9 287.2C173.8 291.9 179.5 295.5 186 298.2C192.5 300.8 199.4 302.1 206.7 302.1C213.5 302.1 219.4 300.6 224.4 297.6C229.3 294.7 234.2 289.5 237.2 284.7V302.1H258V299.6V204.7V202H237.2V202.1ZM202 282.4C185.4 282.4 172 269 172 252.4C172 235.8 185.4 222.4 202 222.4C218.6 222.4 232 235.8 232 252.4C232 269 218.5 282.4 202 282.4Z" fill="black"/>
<path d="M105.2 302.1V202.1H126V212.7C129.5 208.6 133.7 205.3 138.8 202.9C143.9 200.5 149.3 199.3 155.2 199.3C158.9 199.3 162.6 199.8 166.3 200.8L158 221.8C155.4 220.8 152.8 220.3 150.2 220.3C145.8 220.3 141.8 221.4 138.1 223.5C134.4 225.7 131.5 228.6 129.3 232.3C127.1 236 126 240 126 244.5V302.1H105.2Z" fill="black"/>
<path d="M337.1 302.1H310.4L273.9 201.9H296.1L323.7 278.1L351.4 201.9H373.5L337.1 302.1Z" fill="black"/>
<path d="M429.1 302.1C419.9 302.1 411.5 299.7 403.9 295C396.3 290.3 390.3 283.9 385.8 276C381.3 268 379 259.2 379 249.5C379 242.2 380.3 235.3 382.9 229C385.5 222.6 389.1 217 393.7 212.2C398.3 207.4 403.6 203.6 409.6 200.8C415.7 198.1 422.1 196.7 429 196.7C436.7 196.7 443.7 198.3 450.1 201.5C456.5 204.7 462 209 466.5 214.6C471 220.2 474.4 226.6 476.5 233.8C478.6 241 479.3 248.7 478.4 256.8H401.3C402.2 261.4 403.8 265.6 406.3 269.3C408.8 273 412 275.9 415.9 278.1C419.8 280.2 424.1 281.3 428.9 281.4C434 281.4 438.6 280.1 442.7 277.6C446.9 275.1 450.3 271.6 452.9 267.1L474 272C470 280.9 464 288.1 455.9 293.8C448.2 299.3 439.1 302.1 429.1 302.1ZM400.7 240.9H457.5C456.8 236.1 455.1 231.8 452.4 227.9C449.7 224 446.3 220.9 442.3 218.6C438.3 216.3 433.8 215.2 429.1 215.2C424.4 215.2 420 216.3 415.9 218.6C411.9 220.9 408.5 224 405.9 227.8C403.3 231.6 401.6 236 400.7 240.9Z" fill="black"/>
<path d="M492.499 302.1L492.199 162.1H512.899L512.999 302.1H492.499Z" fill="black"/>
<path d="M125.9 161.9H-0.200195V182.9H7.89984H52.3998V302.1H73.1998V182.9H117.8H125.9V161.9Z" fill="black"/>
<path d="M738.101 29.7C736.501 29.7 735.101 29.1999 734.001 28.0999C732.901 26.9999 732.301 25.6999 732.301 23.9999C732.301 22.2999 732.901 20.8999 734.001 19.7999C735.101 18.6999 736.501 18.2 738.101 18.2C739.101 18.2 740.001 18.3999 740.901 18.8999C741.801 19.2999 742.401 19.8999 742.901 20.5999L741.701 21.7C740.801 20.5 739.601 19.8999 738.201 19.8999C737.101 19.8999 736.101 20.2999 735.301 21.0999C734.501 21.8999 734.101 22.8999 734.101 23.9999C734.101 25.1999 734.501 26.0999 735.201 26.8999C736.001 27.6999 736.901 27.9999 738.101 27.9999C739.601 27.9999 740.801 27.4 741.701 26.2L742.901 27.2999C742.401 27.9999 741.701 28.5999 740.801 29.0999C740.101 29.4999 739.201 29.7 738.101 29.7Z" fill="black" stroke="black" stroke-miterlimit="10"/>
<path d="M737.701 33.3998C742.892 33.3998 747.101 29.1913 747.101 23.9998C747.101 18.8084 742.892 14.5999 737.701 14.5999C732.509 14.5999 728.301 18.8084 728.301 23.9998C728.301 29.1913 732.509 33.3998 737.701 33.3998Z" stroke="black" stroke-width="2" stroke-miterlimit="10"/>
<path d="M727.999 232.1C727.999 254.2 727.899 254.3 705.299 260.2C685.5 265.4 666.199 261.7 646.999 256.8C626.699 251.7 606.599 245.8 586.199 241.6C568.799 238 551.499 240.2 535.399 248.5C529.899 251.3 527.999 249.4 528.099 243.9C528.199 234.8 528.299 225.7 528.099 216.5C527.999 211.8 530.099 209.5 534.199 207.5C554.999 197.2 576.599 197 598.499 202.4C618.099 207.2 637.399 213 656.899 217.8C678.699 223.2 700.399 223.6 721.099 213C726.099 210.4 728.099 212.2 728.099 217.3C727.999 222.3 727.999 227.2 727.999 232.1Z" fill="#0074FF"/>
<path d="M728 184.1C728 202 726.1 203.8 707.3 208.6C685.3 214.2 664 208.7 643.1 204.4C625.8 200.8 628.3 202.8 628.1 185.7C628 180.3 628.3 174.9 628 169.5C627.8 163.5 629.7 161.6 636.5 163.4C647.3 166.3 658.2 168.8 669.3 170.6C686 173.4 703 170.5 720.3 164.4C725.7 161.9 728.3 162.5 728 168.7" fill="#0074FF"/>
<path d="M528 279C528 260.2 529.9 258.3 548.7 253.2C570.7 247.3 592 253.1 612.9 257.6C630.2 261.4 627.7 259.3 627.9 277.3C628 283 627.7 288.6 628 294.3C628.2 300.6 626.3 302.6 619.5 300.8C608.7 297.8 597.8 295.1 586.7 293.2C570 290.3 553 293.3 535.7 299.7C530.3 302.3 527.7 301.7 528 295.2" fill="#0074FF"/>
</g>
<defs>
<clipPath id="clip0_1392_2">
<rect width="747" height="302" fill="white"/>
</clipPath>
</defs>
</svg>
