<svg width="905" height="280" viewBox="0 0 905 280" fill="none" xmlns="http://www.w3.org/2000/svg">
<g clip-path="url(#clip0_172_649)">
<path fill-rule="evenodd" clip-rule="evenodd" d="M441.188 76.5924H465.17L452.953 54.4724L441.188 76.5924ZM427.842 102.095H407.027L441.188 39.798H465.622L499.108 102.095H478.069L471.957 91.7123H433.947L427.836 102.095H427.842ZM506.8 81.3294H525.582V82.461C525.462 83.3395 525.565 84.234 525.881 85.0625C526.197 85.8911 526.717 86.6274 527.392 87.204C529.651 88.2517 532.16 88.6418 534.632 88.3296H558.62C560.359 88.5497 562.119 88.1511 563.592 87.204C564.72 86.2951 565.178 84.7181 565.178 83.1351C565.294 82.3564 565.186 81.5607 564.865 80.8413C564.545 80.1218 564.026 79.5082 563.368 79.0723C562.449 78.5609 561.462 78.1819 560.436 77.9467C558.94 77.6943 557.428 77.5435 555.911 77.4953L525.787 76.8212C522.657 76.9046 519.531 76.5233 516.514 75.6896C514.284 75.2375 512.237 74.1381 510.631 72.5296C507.916 69.821 506.782 65.084 506.782 58.3066C506.713 55.333 507.095 52.3662 507.916 49.5067C508.542 47.362 509.709 45.4137 511.307 43.8488C513.291 42.0091 515.702 40.6895 518.324 40.0087C523.013 39.0725 527.796 38.6947 532.574 38.8831H561.764C569.004 38.8831 574.204 40.2374 577.372 42.7233C580.541 45.4318 582.126 49.7214 582.126 55.592V56.9463L581.897 59.1974H563.598V58.9747C563.684 58.1166 563.587 57.2501 563.312 56.4324C563.038 55.6147 562.592 54.8645 562.005 54.2317C560.667 53.1481 558.979 52.5876 557.257 52.6547H535.307C532.839 52.4544 530.358 52.8401 528.068 53.7802C527.492 54.2399 527.029 54.825 526.716 55.4907C526.402 56.1564 526.245 56.8849 526.258 57.6204C526.154 58.3432 526.248 59.0804 526.528 59.7549C526.808 60.4294 527.265 61.0164 527.85 61.4545C529.661 62.4247 531.672 62.9664 533.727 63.0375L565.178 63.489C568.228 63.5171 571.265 63.8948 574.228 64.6145C576.508 65.2396 578.604 66.4017 580.34 68.0033C583.279 70.9345 584.865 76.129 584.865 83.3518C585.021 86.7356 584.481 90.1154 583.279 93.2832C582.1 95.797 580.213 97.9137 577.848 99.3745C575.763 100.599 573.442 101.368 571.037 101.632C566.905 102.083 562.752 102.31 558.596 102.312H533.027C522.621 102.312 515.609 101.182 511.989 98.9231C508.369 96.6659 506.782 92.1517 506.782 85.8317V81.3174L506.8 81.3294ZM646.399 102.095H627.394V79.5237L592.757 39.5753H616.287L636.879 64.4039L658.369 39.5753H680.994L646.381 79.5237L646.399 102.095ZM381.234 180.421C381.919 180.45 382.601 180.322 383.228 180.048C383.855 179.773 384.412 179.36 384.854 178.838C385.771 177.599 386.249 176.092 386.212 174.552C386.212 173.087 385.736 171.661 384.854 170.49C383.895 169.519 382.599 168.953 381.234 168.907H347.297V180.192L381.234 180.421ZM379.647 156.495C380.978 156.492 382.263 156.011 383.268 155.141C383.718 154.618 384.052 154.006 384.247 153.345C384.443 152.684 384.495 151.99 384.402 151.307C384.44 149.972 383.953 148.676 383.044 147.695C382.612 147.219 382.09 146.833 381.506 146.561C380.923 146.29 380.291 146.137 379.647 146.112H347.52V156.495H379.647ZM385.983 194.638H329.197V132.118H383.268C390.055 132.118 395.032 133.472 398.2 136.404C401.367 139.335 403.178 143.627 403.178 149.495C403.402 152.35 402.653 155.196 401.051 157.573C399.45 159.949 397.091 161.716 394.357 162.587C397.637 162.925 400.649 164.549 402.731 167.101C404.724 170.184 405.676 173.822 405.446 177.484C405.446 183.352 403.859 187.644 400.915 190.352C397.971 193.061 392.77 194.638 385.983 194.638ZM452.953 179.741H464.494C470.829 179.741 475.125 178.838 477.387 177.261C479.65 175.684 480.537 172.518 480.537 167.781V158.981C480.537 154.461 479.409 151.307 477.369 149.501C475.33 147.695 471.034 146.793 464.476 147.015H452.711C446.147 147.015 441.851 147.918 439.812 149.501C437.779 151.307 436.644 154.461 436.644 159.204V167.781C436.644 172.301 437.779 175.455 439.812 177.038C441.845 178.621 446.599 179.747 452.934 179.747L452.953 179.741ZM447.957 195.318C442.812 195.471 437.663 195.169 432.572 194.415C429.693 193.956 426.974 192.791 424.656 191.027C422.366 189.213 420.639 186.788 419.679 184.032C418.581 180.294 418.046 176.413 418.092 172.518V155.592C417.939 151.389 418.482 147.19 419.697 143.163C420.594 140.313 422.328 137.797 424.674 135.94C427.16 134.363 429.875 133.009 432.59 132.558C437.674 131.724 442.823 131.345 447.975 131.426H469.472C474.617 131.28 479.764 131.582 484.857 132.329C487.806 132.786 490.601 133.949 493.002 135.718C495.349 137.573 497.083 140.089 497.979 142.94C499.072 146.756 499.605 150.709 499.56 154.678V172.054C499.59 176.022 499.057 179.973 497.979 183.792C497.166 186.682 495.415 189.222 493.002 191.014C490.623 192.822 487.818 193.989 484.857 194.403C479.765 195.157 474.617 195.459 469.472 195.306H447.957V195.318ZM547.507 179.741H559.049C565.384 179.741 569.679 178.838 571.942 177.261C574.204 175.684 575.109 172.518 575.109 167.781V158.981C575.109 154.461 573.981 151.307 571.942 149.501C569.903 147.695 565.607 146.774 559.067 147.015H547.302C540.737 147.015 536.442 147.918 534.179 149.501C531.917 151.084 531.012 154.461 531.012 159.204V167.781C531.012 172.301 532.14 175.455 534.179 177.038C536.665 178.844 540.967 179.747 547.525 179.747L547.507 179.741ZM542.529 195.318C537.384 195.471 532.236 195.169 527.144 194.415C524.266 193.956 521.546 192.791 519.229 191.027C516.938 189.213 515.212 186.788 514.251 184.032C513.153 180.294 512.618 176.413 512.664 172.518V155.592C512.512 151.389 513.054 147.19 514.269 143.163C515.166 140.313 516.9 137.797 519.247 135.94C521.647 134.171 524.442 133.01 527.392 132.558C532.4 131.732 537.472 131.353 542.547 131.426H564.044C569.189 131.28 574.337 131.582 579.429 132.329C582.379 132.786 585.173 133.949 587.574 135.718C589.922 137.573 591.656 140.089 592.552 142.94C593.645 146.756 594.177 150.709 594.132 154.678V172.054C594.162 176.022 593.63 179.973 592.552 183.792C591.736 186.681 589.986 189.22 587.574 191.014C585.255 192.781 582.533 193.945 579.652 194.403C574.561 195.157 569.412 195.459 564.267 195.306H542.547L542.529 195.318ZM626.924 155.364H634.616L658.599 132.118H683.034L650.677 163.026L687.329 194.626H661.766L634.616 171.152H626.924V194.626H608.594V132.118H626.924V155.364ZM715.837 194.638H697.514V132.118H715.837V194.638ZM813.577 194.638H786.656L750.679 149.272V194.638H732.356V132.118H759.506L795.254 177.935V132.118H813.577V194.638ZM885.754 154.69C885.901 153.545 885.75 152.382 885.313 151.313C884.876 150.245 884.17 149.307 883.262 148.592C881.687 147.467 877.832 147.015 871.955 147.015H861.325C854.984 147.015 851.14 147.689 849.336 149.272C847.532 150.855 846.615 154.009 846.615 159.204V167.781C846.615 172.295 847.526 175.455 849.56 177.032C851.593 178.609 855.442 179.512 861.325 179.512H871.955C875.648 179.779 879.354 179.238 882.815 177.929C883.8 177.495 884.618 176.756 885.147 175.821C885.677 174.886 885.89 173.806 885.754 172.741L885.524 171.158V170.929H864.257V158.524H904.982V179.067C904.982 184.935 902.949 188.998 898.647 191.478C894.345 193.958 887.105 195.312 876.927 195.312H856.564C851.936 195.509 847.301 195.131 842.766 194.187C839.973 193.543 837.351 192.312 835.074 190.575C832.641 188.754 830.826 186.234 829.873 183.352C828.67 179.792 828.132 176.043 828.286 172.289V155.364C828.286 146.564 830.319 140.244 834.392 136.626C838.464 133.009 845.928 131.209 856.564 131.209H876.927C880.33 131.209 883.262 131.209 885.524 131.438C887.498 131.539 889.463 131.766 891.407 132.118C894.13 132.495 896.705 133.583 898.87 135.272C900.751 136.904 902.16 139.01 902.949 141.369C903.838 144.452 904.292 147.642 904.3 150.849V154.232L885.754 154.684V154.69ZM38.6737 164.621C43.6512 160.107 48.8519 155.592 54.5112 151.301C54.0587 146.787 53.8294 142.05 53.8294 137.307C53.8294 71.6267 107.224 18.5809 173.066 18.5809C193.456 18.6286 213.495 23.8803 231.275 33.8363C249.056 43.7924 263.988 58.1217 274.649 75.4608C241.17 8.42674 159.491 -19.1104 92.0687 14.0666C62.4673 28.6538 39.1926 53.4814 26.5826 83.9219C13.9725 114.362 12.8876 148.339 23.53 179.518C27.8318 174.775 32.8093 170.038 38.6918 164.621H38.6737ZM172.837 256.261C154.555 256.268 136.517 252.077 120.118 244.014C103.72 235.952 89.4012 224.232 78.2704 209.764C77.1362 210.667 75.7787 211.57 74.4212 212.472C69.6929 216.063 65.1614 219.905 60.8462 223.981C58.7614 226.05 56.7973 228.236 54.9637 230.53C107.454 284.249 193.429 285.381 247.276 233.009C253.082 227.456 258.312 221.331 262.884 214.73C251.797 227.759 237.999 238.223 222.449 245.396C206.898 252.568 189.969 256.275 172.837 256.261ZM165.844 35.7352C112.673 35.7352 69.4618 78.8496 69.4618 131.889C69.3805 134.682 69.5318 137.476 69.9143 140.244C74.4393 137.313 78.9643 134.375 83.7125 131.438C94.8018 79.5237 146.157 46.3467 198.177 57.6324C220.127 62.3338 239.737 74.5503 253.605 92.1637C245.979 75.3209 233.637 61.0352 218.064 51.0254C202.492 41.0155 184.351 35.7079 165.826 35.7412L165.844 35.7352ZM191.637 30.7694C207.042 34.4458 221.375 41.6589 233.494 51.8346C245.613 62.0103 255.183 74.8677 261.444 89.3835C267.705 103.899 270.483 119.673 269.557 135.448C268.631 151.224 264.027 166.566 256.11 180.253C248.194 193.941 237.185 205.596 223.958 214.291C210.731 222.986 195.653 228.481 179.923 230.338C164.192 232.196 148.245 230.365 133.349 224.99C118.453 219.616 105.02 210.847 94.12 199.381L92.7625 200.055C127.382 248.358 194.804 259.644 243.222 225.112C291.639 190.581 302.952 123.312 268.339 75.0094C259.401 62.6593 247.947 52.3336 234.728 44.7094C221.51 37.0852 206.825 32.3347 191.637 30.7694ZM102.247 187.644C91.2118 193.35 80.6909 199.996 70.8012 207.507C65.7938 211.18 61.0315 215.175 56.5444 219.466C52.0923 223.681 48.2176 228.463 45.0207 233.689C43.4307 236.266 42.2846 239.09 41.63 242.044C40.9122 244.767 40.7582 247.608 41.1775 250.392C41.5664 251.726 42.0984 253.013 42.7643 254.233L43.8925 256.038L45.25 257.844C47.06 260.095 49.5518 261.907 52.0375 263.484C54.7206 264.964 57.6134 266.029 60.6169 266.644L65.1419 267.547L69.8901 268.221C76.2773 268.902 82.7049 269.129 89.1244 268.901C82.6676 269.654 76.1659 269.956 69.6669 269.804C68.0786 269.847 66.4893 269.771 64.9126 269.575L62.4269 269.352L59.9412 268.901C56.6472 268.399 53.4478 267.405 50.4507 265.952C47.3643 264.553 44.5355 262.646 42.0825 260.312L40.2725 258.277L38.8969 256.032C38.0475 254.5 37.292 252.918 36.6344 251.295C35.5777 247.85 35.4281 244.191 36.2 240.672C36.8832 237.225 38.0256 233.885 39.5968 230.74C42.5956 224.687 46.4009 219.067 50.9093 214.031C55.2411 209.036 59.9292 204.359 64.9368 200.037C75.1521 191.292 86.0462 183.368 97.5168 176.34L102.247 187.644ZM94.1019 171.615C78.7009 179.791 64.1498 189.468 50.6619 200.507C44.192 205.911 38.1414 211.796 32.5619 218.112C26.9273 224.283 22.2794 231.283 18.7818 238.866C17.0654 242.514 15.914 246.4 15.3669 250.392C15.1377 252.342 15.1377 254.311 15.3669 256.261C15.6855 258.121 16.218 259.939 16.9537 261.678C18.723 265.169 21.4737 268.07 24.8694 270.026C28.4303 272.066 32.2298 273.659 36.1819 274.77C44.5742 276.762 53.1342 277.971 61.7512 278.381C70.3487 278.61 79.1694 278.61 87.7669 278.152C79.1694 279.055 70.3487 279.735 61.7512 279.958C53.03 280.19 44.3086 279.51 35.7294 277.93C31.3393 277.046 27.0811 275.604 23.0594 273.638C19.8609 272.082 17.0708 269.803 14.911 266.981C12.7512 264.16 11.2814 260.874 10.6187 257.387C10.2429 255.075 10.0914 252.733 10.1662 250.392C10.445 245.798 11.523 241.286 13.3518 237.06C16.7669 228.717 21.3362 220.893 26.9268 213.815C32.4063 206.849 38.3806 200.285 44.8035 194.174C57.2898 182.349 71.021 171.906 85.7578 163.026L94.126 171.603L94.1019 171.615ZM88.9012 145.432C88.5948 145.102 88.4063 144.679 88.3649 144.231C88.3235 143.783 88.4314 143.333 88.6719 142.952C88.8593 142.632 89.1219 142.361 89.4371 142.164C89.7524 141.967 90.1109 141.849 90.4819 141.821H90.9344L97.0462 142.952H97.4926C110.573 135.345 124.461 129.212 138.899 124.667L131.207 115.638C102.488 126.021 69.0032 146.112 43.2107 169.358C19.91 190.352 13.3457 203.215 0 230.53C16.5132 205.472 35.2769 184.484 57.6907 168.443C66.065 162.574 77.824 154.677 90.494 147.226L88.9132 145.42L88.9012 145.432ZM209.266 110.901C208.72 111.084 208.19 111.309 207.679 111.575C206.58 112.012 205.52 112.541 204.512 113.158L186.189 122.187L175.781 116.992L183.244 112.478C185.284 111.352 185.73 108.867 184.602 106.838C184.373 106.609 184.373 106.387 184.149 106.387C183.723 105.861 183.196 105.426 182.599 105.107C182.002 104.788 181.347 104.591 180.673 104.527C179.998 104.464 179.318 104.536 178.672 104.738C178.026 104.941 177.426 105.27 176.909 105.707L176.68 105.935L168.535 113.381L129.849 93.518C128.558 92.9353 127.184 92.5556 125.777 92.3924L117.179 91.941L164.016 133.021L121.047 154.238C119.726 154.94 118.183 155.101 116.745 154.69L96.3825 145.21L90.5 143.855L108.377 164.621C108.6 164.844 108.6 165.072 108.823 165.072L116.063 190.352L119.001 184.255L123.074 165.747C123.218 165.18 123.5 164.657 123.895 164.224C124.289 163.792 124.784 163.463 125.336 163.267L174.436 146.564L180.994 202.541L186.653 197.346C187.336 196.162 187.796 194.862 188.011 193.512L192.988 156.044L202.714 155.592C205.658 155.364 207.921 152.884 207.691 150.175V149.947C207.547 148.862 207.004 147.869 206.168 147.161C205.332 146.453 204.263 146.079 203.166 146.112C203.043 146.098 202.919 146.11 202.801 146.149C202.683 146.187 202.575 146.251 202.485 146.335L194.116 148.37L195.257 139.552L210.847 134.134C213.305 133.445 215.722 132.617 218.087 131.655C231.662 126.015 240.941 116.535 238.449 110.889C235.958 105.243 223.064 105.243 209.26 110.889L209.266 110.901ZM397.506 54.9239H348.407V64.4039H394.785V77.4953H348.407V87.1859H398.182V102.306H329.197V39.5753H397.524L397.506 54.9239Z" fill="#17B8D3"/>
<path d="M343.104 228.928V232.738H333.36V236.759H341.722V240.491H333.36V247.894H329.137V228.928H343.104Z" fill="#17B8D3"/>
<path d="M351.128 228.928V243.976H361.384V247.894H346.904V228.928H351.128Z" fill="#17B8D3"/>
<path d="M369.247 228.928V247.894H364.963V228.928H369.247Z" fill="#17B8D3"/>
<path d="M390.863 237.06V245.818C388.667 247.509 385.949 248.384 383.176 248.292C381.338 248.321 379.519 247.908 377.873 247.088C376.371 246.327 375.128 245.139 374.301 243.675C373.423 242.074 372.984 240.269 373.028 238.444C373.021 237.146 373.265 235.859 373.746 234.652C374.223 233.479 374.921 232.408 375.804 231.498C376.742 230.558 377.869 229.826 379.11 229.35C380.493 228.808 381.968 228.538 383.454 228.555C386.113 228.47 388.704 229.405 390.694 231.167L388.281 234.219C387.61 233.606 386.824 233.131 385.969 232.821C385.114 232.511 384.206 232.373 383.297 232.413C382.491 232.378 381.685 232.505 380.929 232.786C380.172 233.068 379.48 233.498 378.893 234.051C377.811 235.248 377.213 236.803 377.213 238.414C377.213 240.026 377.811 241.581 378.893 242.778C379.476 243.324 380.162 243.748 380.91 244.027C381.659 244.306 382.456 244.434 383.255 244.403C384.468 244.428 385.671 244.177 386.772 243.669V240.786L383.418 240.593V237.06H390.863Z" fill="#17B8D3"/>
<path d="M399.285 228.928V236.332H407.593V228.928H411.871V247.894H407.593V240.268H399.285V247.894H395.008V228.928H399.285Z" fill="#17B8D3"/>
<path d="M432.711 228.928V232.768H426.237V247.894H422.014V232.786H415.504V228.946L432.711 228.928Z" fill="#17B8D3"/>
<path d="M448.252 233.954C446.673 232.823 444.765 232.241 442.822 232.299C440.513 232.299 439.358 232.919 439.358 234.159C439.346 234.399 439.394 234.638 439.5 234.854C439.606 235.07 439.764 235.255 439.962 235.393C440.543 235.74 441.198 235.946 441.874 235.995L444.644 236.356C446.715 236.633 448.27 237.265 449.307 238.252C449.827 238.758 450.234 239.367 450.502 240.04C450.77 240.713 450.894 241.435 450.864 242.158C450.892 243.023 450.711 243.883 450.337 244.664C449.964 245.445 449.408 246.126 448.716 246.648C447.284 247.752 445.259 248.304 442.641 248.304C441.177 248.321 439.718 248.153 438.297 247.804C436.972 247.453 435.716 246.883 434.58 246.119L436.39 242.64C438.347 243.85 440.61 244.477 442.912 244.445C443.87 244.504 444.826 244.313 445.687 243.892C445.973 243.751 446.213 243.533 446.381 243.263C446.548 242.992 446.636 242.681 446.635 242.363C446.649 242.109 446.601 241.856 446.496 241.624C446.391 241.393 446.232 241.19 446.031 241.033C445.408 240.646 444.7 240.419 443.968 240.371L441.048 240.009C437.15 239.504 435.201 237.618 435.201 234.351C435.164 233.521 435.333 232.694 435.693 231.945C436.053 231.195 436.593 230.545 437.265 230.054C438.641 229.031 440.487 228.519 442.804 228.519C445.961 228.519 448.495 229.322 450.406 230.927L448.252 233.954Z" fill="#17B8D3"/>
<path d="M476.567 228.928V236.332H484.875V228.928H489.152V247.894H484.875V240.268H476.567V247.894H472.289V228.928H476.567Z" fill="#17B8D3"/>
<path d="M502.994 228.525C504.397 228.512 505.79 228.768 507.097 229.277C508.287 229.73 509.37 230.426 510.274 231.322C511.178 232.218 511.884 233.293 512.345 234.478C512.846 235.725 513.099 237.058 513.088 238.402C513.094 239.714 512.841 241.015 512.345 242.23C511.874 243.403 511.177 244.472 510.294 245.378C509.383 246.298 508.29 247.02 507.084 247.497C505.786 248.025 504.396 248.291 502.994 248.28C501.604 248.291 500.225 248.033 498.933 247.521C497.744 247.062 496.663 246.362 495.758 245.466C494.852 244.57 494.142 243.497 493.672 242.315C493.17 241.071 492.916 239.743 492.924 238.402C492.909 236.665 493.347 234.953 494.197 233.437C495.048 231.923 496.3 230.673 497.817 229.825C499.399 228.947 501.184 228.498 502.994 228.525ZM502.994 232.323C501.887 232.297 500.796 232.583 499.844 233.148C498.97 233.669 498.265 234.429 497.811 235.339C497.343 236.291 497.107 237.341 497.123 238.402C497.066 240.006 497.637 241.57 498.716 242.76C499.259 243.336 499.92 243.787 500.654 244.084C501.389 244.382 502.178 244.517 502.97 244.482C504.082 244.505 505.177 244.215 506.131 243.645C507.001 243.121 507.7 242.358 508.146 241.448C508.598 240.497 508.825 239.455 508.81 238.402C508.876 236.795 508.311 235.225 507.235 234.026C506.691 233.457 506.031 233.01 505.3 232.716C504.568 232.422 503.782 232.288 502.994 232.323Z" fill="#17B8D3"/>
<path d="M532.225 228.928V232.768H525.733V247.894H521.509V232.786H515.018V228.946L532.225 228.928Z" fill="#17B8D3"/>
<path d="M550.066 228.928V232.738H540.051V236.302H548.986V240.015H540.051V244.066H550.524V247.894H535.857V228.928H550.066Z" fill="#17B8D3"/>
<path d="M558.735 228.928V243.976H568.992V247.894H554.512V228.928H558.735Z" fill="#17B8D3"/>
<path d="M584.757 233.954C583.179 232.823 581.271 232.241 579.327 232.299C577.019 232.299 575.864 232.919 575.864 234.159C575.852 234.399 575.9 234.638 576.006 234.854C576.111 235.07 576.27 235.255 576.468 235.393C577.049 235.74 577.704 235.946 578.38 235.995L581.15 236.356C583.221 236.633 584.776 237.265 585.813 238.252C586.333 238.758 586.74 239.367 587.008 240.04C587.276 240.713 587.399 241.435 587.37 242.158C587.398 243.023 587.217 243.883 586.843 244.664C586.47 245.445 585.914 246.126 585.222 246.648C583.79 247.752 581.765 248.304 579.146 248.304C577.683 248.321 576.223 248.153 574.802 247.804C573.478 247.453 572.222 246.883 571.086 246.119L572.896 242.64C574.853 243.85 577.116 244.477 579.418 244.445C580.376 244.504 581.332 244.313 582.193 243.892C582.479 243.751 582.719 243.533 582.886 243.263C583.054 242.992 583.142 242.681 583.141 242.363C583.154 242.109 583.107 241.856 583.002 241.624C582.897 241.393 582.737 241.19 582.537 241.033C581.914 240.646 581.206 240.419 580.474 240.371L577.554 240.009C573.656 239.504 571.707 237.618 571.707 234.351C571.67 233.521 571.839 232.694 572.199 231.945C572.559 231.195 573.099 230.545 573.771 230.054C575.146 229.031 576.993 228.519 579.309 228.519C582.467 228.519 585.001 229.322 586.911 230.927L584.757 233.954Z" fill="#17B8D3"/>
<path d="M625.006 228.928V232.768H618.514V247.894H614.291V232.786H607.799V228.946L625.006 228.928Z" fill="#17B8D3"/>
<path d="M637.006 228.525C638.409 228.513 639.801 228.768 641.108 229.277C642.299 229.73 643.382 230.426 644.286 231.322C645.19 232.218 645.896 233.293 646.357 234.478C646.858 235.725 647.11 237.059 647.099 238.402C647.105 239.715 646.853 241.015 646.357 242.23C645.885 243.403 645.189 244.472 644.306 245.378C643.394 246.298 642.302 247.02 641.096 247.497C639.798 248.025 638.408 248.291 637.006 248.28C635.616 248.292 634.237 248.034 632.945 247.521C631.748 247.054 630.66 246.347 629.748 245.445C628.859 244.548 628.157 243.484 627.684 242.315C627.179 241.072 626.925 239.743 626.936 238.402C626.918 236.665 627.357 234.952 628.209 233.437C629.059 231.923 630.312 230.673 631.829 229.825C633.41 228.946 635.196 228.498 637.006 228.525ZM637.006 232.323C635.907 232.301 634.825 232.587 633.88 233.148C633.005 233.667 632.299 234.428 631.847 235.339C631.379 236.291 631.143 237.341 631.159 238.402C631.102 240.006 631.673 241.57 632.752 242.76C633.292 243.332 633.948 243.781 634.677 244.078C635.405 244.375 636.189 244.513 636.976 244.482C638.087 244.505 639.183 244.215 640.137 243.645C641.005 243.12 641.705 242.357 642.152 241.448C642.603 240.497 642.83 239.455 642.816 238.402C642.882 236.794 642.315 235.223 641.235 234.027C640.693 233.458 640.035 233.011 639.305 232.718C638.576 232.424 637.792 232.289 637.006 232.323Z" fill="#17B8D3"/>
<path d="M655.147 228.928V239.468C655.068 240.778 655.46 242.073 656.251 243.121C656.648 243.569 657.143 243.921 657.697 244.149C658.251 244.378 658.85 244.477 659.449 244.439C660.047 244.482 660.647 244.392 661.205 244.174C661.763 243.956 662.266 243.617 662.676 243.181C663.404 242.347 663.768 241.127 663.768 239.522V228.928H668.052V239.468C668.052 242.168 667.304 244.315 665.808 245.908C664.311 247.501 662.192 248.304 659.449 248.316C656.713 248.316 654.6 247.535 653.108 245.974C651.615 244.413 650.869 242.278 650.869 239.57V228.928H655.147Z" fill="#17B8D3"/>
<path d="M681.278 228.929C683.22 228.838 685.127 229.463 686.635 230.686C687.31 231.263 687.844 231.984 688.2 232.796C688.555 233.608 688.721 234.49 688.687 235.375C688.711 236.6 688.355 237.802 687.667 238.818C686.957 239.84 685.957 240.628 684.795 241.081L689.417 247.877H684.252L680.765 242.213H676.946V247.895H672.723V228.929H681.278ZM676.946 238.457H680.976C681.859 238.501 682.728 238.228 683.426 237.686C683.708 237.414 683.934 237.089 684.089 236.729C684.245 236.369 684.328 235.983 684.333 235.591C684.338 235.199 684.265 234.81 684.119 234.447C683.972 234.083 683.755 233.752 683.48 233.473C682.799 232.928 681.938 232.657 681.067 232.715H676.928L676.946 238.457Z" fill="#17B8D3"/>
<path d="M705.406 233.954C703.826 232.825 701.918 232.243 699.976 232.299C697.671 232.299 696.519 232.919 696.519 234.159C696.505 234.399 696.554 234.638 696.659 234.854C696.765 235.07 696.924 235.256 697.122 235.393C697.705 235.74 698.363 235.947 699.041 235.995L701.81 236.356C703.881 236.633 705.434 237.265 706.468 238.252C706.987 238.758 707.394 239.367 707.662 240.04C707.93 240.713 708.054 241.435 708.024 242.158C708.053 243.023 707.873 243.882 707.5 244.663C707.128 245.444 706.573 246.125 705.882 246.648C704.446 247.75 702.425 248.304 699.801 248.304C698.339 248.321 696.882 248.153 695.463 247.804C694.136 247.453 692.878 246.884 691.74 246.119L693.55 242.64C695.508 243.848 697.77 244.474 700.072 244.445C701.032 244.503 701.99 244.313 702.854 243.892C703.138 243.75 703.378 243.532 703.545 243.261C703.712 242.991 703.801 242.68 703.801 242.363C703.812 242.106 703.759 241.85 703.647 241.618C703.536 241.386 703.369 241.185 703.161 241.033C702.539 240.644 701.83 240.417 701.098 240.371L698.178 240.009C694.28 239.504 692.334 237.618 692.338 234.351C692.3 233.521 692.469 232.694 692.829 231.945C693.189 231.195 693.729 230.545 694.401 230.054C695.768 229.031 697.613 228.519 699.933 228.519C703.095 228.519 705.629 229.322 707.535 230.927L705.406 233.954Z" fill="#17B8D3"/>
<path d="M745.655 228.928V232.768H739.163V247.894H734.939V232.786H728.441V228.946L745.655 228.928Z" fill="#17B8D3"/>
<path d="M757.872 228.928C759.813 228.839 761.72 229.464 763.229 230.686C763.903 231.263 764.437 231.985 764.792 232.797C765.147 233.608 765.314 234.49 765.281 235.375C765.3 236.599 764.944 237.8 764.261 238.818C763.551 239.84 762.551 240.628 761.389 241.081L766.011 247.876H760.846L757.359 242.212H753.534V247.894H749.311V228.928H757.872ZM753.534 238.457H757.564C758.447 238.503 759.317 238.229 760.014 237.686C760.298 237.415 760.525 237.09 760.682 236.731C760.839 236.371 760.923 235.984 760.929 235.592C760.934 235.2 760.862 234.811 760.715 234.447C760.568 234.083 760.35 233.752 760.074 233.473C759.393 232.927 758.532 232.657 757.661 232.714H753.516L753.534 238.457Z" fill="#17B8D3"/>
<path d="M780.858 228.898L788.701 247.876H784.013L782.571 244.121H774.42L773.008 247.876H768.381L776.17 228.898H780.858ZM775.802 240.377H781.166L778.644 233.154H778.366L775.802 240.377Z" fill="#17B8D3"/>
<path d="M809.353 228.928V247.894H805.13L796.37 235.784V247.894H792.225V228.928H796.05L805.269 241.719V228.928H809.353Z" fill="#17B8D3"/>
<path d="M826.73 233.954C825.15 232.825 823.243 232.243 821.3 232.299C818.995 232.299 817.837 232.901 817.837 234.159C817.824 234.399 817.873 234.638 817.978 234.854C818.084 235.07 818.243 235.255 818.44 235.393C819.024 235.74 819.681 235.947 820.359 235.995L823.128 236.356C825.196 236.633 826.748 237.265 827.786 238.252C828.305 238.758 828.713 239.367 828.981 240.04C829.249 240.713 829.372 241.435 829.343 242.158C829.374 243.024 829.195 243.884 828.821 244.666C828.447 245.448 827.889 246.128 827.195 246.648C825.767 247.752 823.742 248.304 821.119 248.304C819.658 248.321 818.2 248.153 816.781 247.804C815.455 247.453 814.197 246.884 813.059 246.119L814.869 242.64C816.826 243.848 819.089 244.474 821.391 244.445C822.348 244.504 823.305 244.313 824.166 243.892C824.452 243.751 824.693 243.533 824.862 243.263C825.03 242.993 825.119 242.681 825.119 242.363C825.128 242.106 825.075 241.851 824.964 241.619C824.852 241.388 824.686 241.186 824.48 241.033C823.858 240.644 823.149 240.417 822.416 240.371L819.496 240.009C815.599 239.504 813.65 237.618 813.65 234.351C813.613 233.521 813.782 232.694 814.142 231.945C814.501 231.195 815.041 230.545 815.713 230.054C817.089 229.031 818.935 228.519 821.252 228.519C824.413 228.519 826.947 229.322 828.854 230.927L826.73 233.954Z" fill="#17B8D3"/>
<path d="M847.087 228.928V232.738H837.337V236.759H845.699V240.491H837.337V247.894H833.113V228.928H847.087Z" fill="#17B8D3"/>
<path d="M865.06 228.928V232.738H855.051V236.302H863.98V240.015H855.051V244.066H865.549V247.894H850.857V228.928H865.06Z" fill="#17B8D3"/>
<path d="M878.067 228.929C880.009 228.838 881.916 229.463 883.425 230.686C884.099 231.263 884.634 231.984 884.989 232.796C885.344 233.608 885.511 234.49 885.476 235.375C885.5 236.6 885.144 237.802 884.456 238.818C883.746 239.84 882.746 240.628 881.584 241.081L886.212 247.877H881.041L877.554 242.213H873.735V247.895H869.512V228.929H878.067ZM873.735 238.457H877.765C878.648 238.501 879.517 238.228 880.215 237.686C880.497 237.414 880.723 237.089 880.878 236.729C881.034 236.369 881.117 235.983 881.122 235.591C881.127 235.199 881.054 234.81 880.908 234.447C880.761 234.083 880.544 233.752 880.269 233.473C879.588 232.928 878.727 232.657 877.856 232.715H873.717L873.735 238.457Z" fill="#17B8D3"/>
<path d="M902.195 233.954C900.615 232.825 898.708 232.243 896.765 232.299C894.46 232.299 893.308 232.919 893.308 234.159C893.294 234.399 893.343 234.638 893.448 234.854C893.554 235.07 893.713 235.256 893.911 235.393C894.495 235.74 895.152 235.947 895.83 235.995L898.599 236.356C900.666 236.633 902.219 237.265 903.257 238.252C903.776 238.758 904.183 239.367 904.451 240.04C904.72 240.713 904.843 241.435 904.813 242.158C904.842 243.023 904.662 243.882 904.289 244.663C903.917 245.444 903.362 246.125 902.671 246.648C901.236 247.75 899.214 248.304 896.59 248.304C895.128 248.321 893.671 248.153 892.252 247.804C890.926 247.453 889.667 246.884 888.529 246.119L890.339 242.64C892.297 243.848 894.56 244.474 896.861 244.445C897.821 244.503 898.779 244.313 899.643 243.892C899.927 243.75 900.167 243.532 900.334 243.261C900.501 242.991 900.59 242.68 900.59 242.363C900.601 242.106 900.548 241.85 900.436 241.618C900.325 241.386 900.158 241.185 899.95 241.033C899.329 240.644 898.619 240.417 897.887 240.371L894.967 240.009C891.069 239.504 889.123 237.618 889.127 234.351C889.088 233.521 889.257 232.694 889.617 231.944C889.977 231.194 890.517 230.545 891.19 230.054C892.558 229.031 894.402 228.519 896.723 228.519C899.884 228.519 902.418 229.322 904.325 230.927L902.195 233.954Z" fill="#17B8D3"/>
<path d="M460.849 242.471C462.675 242.471 464.156 240.995 464.156 239.173C464.156 237.351 462.675 235.875 460.849 235.875C459.023 235.875 457.543 237.351 457.543 239.173C457.543 240.995 459.023 242.471 460.849 242.471Z" fill="#17B8D3"/>
<path d="M597.734 242.471C599.56 242.471 601.04 240.995 601.04 239.173C601.04 237.351 599.56 235.875 597.734 235.875C595.908 235.875 594.428 237.351 594.428 239.173C594.428 240.995 595.908 242.471 597.734 242.471Z" fill="#17B8D3"/>
<path d="M719.638 242.471C721.464 242.471 722.945 240.995 722.945 239.173C722.945 237.351 721.464 235.875 719.638 235.875C717.812 235.875 716.332 237.351 716.332 239.173C716.332 240.995 717.812 242.471 719.638 242.471Z" fill="#17B8D3"/>
</g>
<defs>
<clipPath id="clip0_172_649">
<rect width="905" height="280" fill="white"/>
</clipPath>
</defs>
</svg>
